<mxfile host="app.diagrams.net" modified="2023-04-10T19:26:53.627Z" agent="Mozilla/5.0 (Windows NT 10.0; Win64; x64) AppleWebKit/537.36 (KHTML, like Gecko) Chrome/111.0.0.0 Safari/537.36" etag="WwPovofd0m29uTsbO0V1" version="21.1.5" type="device">
  <diagram name="Страница 1" id="oVjooAjmoZmYBBwCKfqT">
    <mxGraphModel dx="956" dy="525" grid="1" gridSize="10" guides="1" tooltips="1" connect="1" arrows="1" fold="1" page="1" pageScale="1" pageWidth="827" pageHeight="1169" math="0" shadow="0">
      <root>
        <mxCell id="0" />
        <mxCell id="1" parent="0" />
        <mxCell id="3Dl1Y_PkVIbaozeOQW8g-16" style="edgeStyle=orthogonalEdgeStyle;rounded=0;orthogonalLoop=1;jettySize=auto;html=1;exitX=0.855;exitY=1;exitDx=0;exitDy=-4.35;exitPerimeter=0;entryX=0.75;entryY=0;entryDx=0;entryDy=0;" edge="1" parent="1" source="3Dl1Y_PkVIbaozeOQW8g-3" target="3Dl1Y_PkVIbaozeOQW8g-9">
          <mxGeometry relative="1" as="geometry" />
        </mxCell>
        <mxCell id="3Dl1Y_PkVIbaozeOQW8g-3" value="YouTube" style="shape=cylinder3;whiteSpace=wrap;html=1;boundedLbl=1;backgroundOutline=1;size=15;" vertex="1" parent="1">
          <mxGeometry x="210" y="40" width="60" height="80" as="geometry" />
        </mxCell>
        <mxCell id="3Dl1Y_PkVIbaozeOQW8g-27" style="edgeStyle=orthogonalEdgeStyle;rounded=0;orthogonalLoop=1;jettySize=auto;html=1;entryX=0.75;entryY=1;entryDx=0;entryDy=0;" edge="1" parent="1" source="3Dl1Y_PkVIbaozeOQW8g-4" target="3Dl1Y_PkVIbaozeOQW8g-5">
          <mxGeometry relative="1" as="geometry">
            <Array as="points">
              <mxPoint x="420" y="430" />
              <mxPoint x="420" y="430" />
            </Array>
          </mxGeometry>
        </mxCell>
        <mxCell id="3Dl1Y_PkVIbaozeOQW8g-4" value="Финансовый рынок" style="shape=cylinder3;whiteSpace=wrap;html=1;boundedLbl=1;backgroundOutline=1;size=15;" vertex="1" parent="1">
          <mxGeometry x="367" y="440" width="73" height="95" as="geometry" />
        </mxCell>
        <mxCell id="3Dl1Y_PkVIbaozeOQW8g-26" style="edgeStyle=orthogonalEdgeStyle;rounded=0;orthogonalLoop=1;jettySize=auto;html=1;entryX=0.145;entryY=0;entryDx=0;entryDy=4.35;entryPerimeter=0;" edge="1" parent="1" source="3Dl1Y_PkVIbaozeOQW8g-5" target="3Dl1Y_PkVIbaozeOQW8g-4">
          <mxGeometry relative="1" as="geometry">
            <Array as="points">
              <mxPoint x="370" y="410" />
              <mxPoint x="370" y="410" />
            </Array>
          </mxGeometry>
        </mxCell>
        <mxCell id="3Dl1Y_PkVIbaozeOQW8g-28" style="edgeStyle=orthogonalEdgeStyle;rounded=0;orthogonalLoop=1;jettySize=auto;html=1;entryX=1;entryY=0.75;entryDx=0;entryDy=0;" edge="1" parent="1" source="3Dl1Y_PkVIbaozeOQW8g-5" target="3Dl1Y_PkVIbaozeOQW8g-8">
          <mxGeometry relative="1" as="geometry">
            <Array as="points">
              <mxPoint x="320" y="370" />
              <mxPoint x="320" y="328" />
            </Array>
          </mxGeometry>
        </mxCell>
        <mxCell id="3Dl1Y_PkVIbaozeOQW8g-5" value="Market-data-fetcher" style="whiteSpace=wrap;html=1;aspect=fixed;" vertex="1" parent="1">
          <mxGeometry x="360" y="330" width="80" height="80" as="geometry" />
        </mxCell>
        <mxCell id="3Dl1Y_PkVIbaozeOQW8g-12" style="edgeStyle=orthogonalEdgeStyle;rounded=0;orthogonalLoop=1;jettySize=auto;html=1;entryX=0;entryY=0.5;entryDx=0;entryDy=0;" edge="1" parent="1" source="3Dl1Y_PkVIbaozeOQW8g-7" target="3Dl1Y_PkVIbaozeOQW8g-8">
          <mxGeometry relative="1" as="geometry" />
        </mxCell>
        <mxCell id="3Dl1Y_PkVIbaozeOQW8g-7" value="User" style="shape=umlActor;verticalLabelPosition=bottom;verticalAlign=top;html=1;outlineConnect=0;" vertex="1" parent="1">
          <mxGeometry x="40" y="280" width="30" height="60" as="geometry" />
        </mxCell>
        <mxCell id="3Dl1Y_PkVIbaozeOQW8g-13" style="edgeStyle=orthogonalEdgeStyle;rounded=0;orthogonalLoop=1;jettySize=auto;html=1;entryX=0.5;entryY=1;entryDx=0;entryDy=0;" edge="1" parent="1" source="3Dl1Y_PkVIbaozeOQW8g-8" target="3Dl1Y_PkVIbaozeOQW8g-9">
          <mxGeometry relative="1" as="geometry" />
        </mxCell>
        <mxCell id="3Dl1Y_PkVIbaozeOQW8g-20" style="edgeStyle=orthogonalEdgeStyle;rounded=0;orthogonalLoop=1;jettySize=auto;html=1;entryX=0.5;entryY=0;entryDx=0;entryDy=0;" edge="1" parent="1" source="3Dl1Y_PkVIbaozeOQW8g-8" target="3Dl1Y_PkVIbaozeOQW8g-5">
          <mxGeometry relative="1" as="geometry" />
        </mxCell>
        <mxCell id="3Dl1Y_PkVIbaozeOQW8g-31" style="edgeStyle=orthogonalEdgeStyle;rounded=0;orthogonalLoop=1;jettySize=auto;html=1;entryX=0.25;entryY=0;entryDx=0;entryDy=0;exitX=0.25;exitY=1;exitDx=0;exitDy=0;" edge="1" parent="1" source="3Dl1Y_PkVIbaozeOQW8g-8" target="3Dl1Y_PkVIbaozeOQW8g-29">
          <mxGeometry relative="1" as="geometry">
            <Array as="points">
              <mxPoint x="165" y="345" />
            </Array>
          </mxGeometry>
        </mxCell>
        <mxCell id="3Dl1Y_PkVIbaozeOQW8g-8" value="Data-manager" style="whiteSpace=wrap;html=1;aspect=fixed;" vertex="1" parent="1">
          <mxGeometry x="150" y="275" width="70" height="70" as="geometry" />
        </mxCell>
        <mxCell id="3Dl1Y_PkVIbaozeOQW8g-15" style="edgeStyle=orthogonalEdgeStyle;rounded=0;orthogonalLoop=1;jettySize=auto;html=1;entryX=0.145;entryY=1;entryDx=0;entryDy=-4.35;entryPerimeter=0;exitX=0.25;exitY=0;exitDx=0;exitDy=0;" edge="1" parent="1" source="3Dl1Y_PkVIbaozeOQW8g-9" target="3Dl1Y_PkVIbaozeOQW8g-3">
          <mxGeometry relative="1" as="geometry" />
        </mxCell>
        <mxCell id="3Dl1Y_PkVIbaozeOQW8g-17" style="edgeStyle=orthogonalEdgeStyle;rounded=0;orthogonalLoop=1;jettySize=auto;html=1;entryX=0;entryY=0.5;entryDx=0;entryDy=0;" edge="1" parent="1" source="3Dl1Y_PkVIbaozeOQW8g-9" target="3Dl1Y_PkVIbaozeOQW8g-10">
          <mxGeometry relative="1" as="geometry" />
        </mxCell>
        <mxCell id="3Dl1Y_PkVIbaozeOQW8g-9" value="Эксперт&lt;br&gt;Video-searcher" style="whiteSpace=wrap;html=1;aspect=fixed;" vertex="1" parent="1">
          <mxGeometry x="200" y="150" width="80" height="80" as="geometry" />
        </mxCell>
        <mxCell id="3Dl1Y_PkVIbaozeOQW8g-19" style="edgeStyle=orthogonalEdgeStyle;rounded=0;orthogonalLoop=1;jettySize=auto;html=1;entryX=1;entryY=0.25;entryDx=0;entryDy=0;" edge="1" parent="1" source="3Dl1Y_PkVIbaozeOQW8g-10" target="3Dl1Y_PkVIbaozeOQW8g-8">
          <mxGeometry relative="1" as="geometry">
            <Array as="points">
              <mxPoint x="400" y="293" />
            </Array>
          </mxGeometry>
        </mxCell>
        <mxCell id="3Dl1Y_PkVIbaozeOQW8g-10" value="Эксперт&lt;br&gt;ML-server" style="whiteSpace=wrap;html=1;aspect=fixed;" vertex="1" parent="1">
          <mxGeometry x="360" y="150" width="80" height="80" as="geometry" />
        </mxCell>
        <mxCell id="3Dl1Y_PkVIbaozeOQW8g-32" style="edgeStyle=orthogonalEdgeStyle;rounded=0;orthogonalLoop=1;jettySize=auto;html=1;entryX=0.75;entryY=1;entryDx=0;entryDy=0;exitX=0.75;exitY=0;exitDx=0;exitDy=0;" edge="1" parent="1" source="3Dl1Y_PkVIbaozeOQW8g-29" target="3Dl1Y_PkVIbaozeOQW8g-8">
          <mxGeometry relative="1" as="geometry">
            <Array as="points">
              <mxPoint x="202" y="390" />
            </Array>
          </mxGeometry>
        </mxCell>
        <mxCell id="3Dl1Y_PkVIbaozeOQW8g-29" value="Prediction module" style="whiteSpace=wrap;html=1;aspect=fixed;" vertex="1" parent="1">
          <mxGeometry x="145" y="390" width="80" height="80" as="geometry" />
        </mxCell>
        <mxCell id="3Dl1Y_PkVIbaozeOQW8g-33" value="1" style="text;strokeColor=none;align=center;fillColor=none;html=1;verticalAlign=middle;whiteSpace=wrap;rounded=0;" vertex="1" parent="1">
          <mxGeometry x="80" y="280" width="60" height="30" as="geometry" />
        </mxCell>
        <mxCell id="3Dl1Y_PkVIbaozeOQW8g-34" value="2" style="text;strokeColor=none;align=center;fillColor=none;html=1;verticalAlign=middle;whiteSpace=wrap;rounded=0;" vertex="1" parent="1">
          <mxGeometry x="165" y="230" width="60" height="30" as="geometry" />
        </mxCell>
        <mxCell id="3Dl1Y_PkVIbaozeOQW8g-35" value="3" style="text;strokeColor=none;align=center;fillColor=none;html=1;verticalAlign=middle;whiteSpace=wrap;rounded=0;" vertex="1" parent="1">
          <mxGeometry x="180" y="120" width="60" height="30" as="geometry" />
        </mxCell>
        <mxCell id="3Dl1Y_PkVIbaozeOQW8g-36" value="4" style="text;strokeColor=none;align=center;fillColor=none;html=1;verticalAlign=middle;whiteSpace=wrap;rounded=0;" vertex="1" parent="1">
          <mxGeometry x="240" y="120" width="60" height="30" as="geometry" />
        </mxCell>
        <mxCell id="3Dl1Y_PkVIbaozeOQW8g-37" value="5" style="text;strokeColor=none;align=center;fillColor=none;html=1;verticalAlign=middle;whiteSpace=wrap;rounded=0;" vertex="1" parent="1">
          <mxGeometry x="290" y="160" width="60" height="30" as="geometry" />
        </mxCell>
        <mxCell id="3Dl1Y_PkVIbaozeOQW8g-39" value="6" style="text;strokeColor=none;align=center;fillColor=none;html=1;verticalAlign=middle;whiteSpace=wrap;rounded=0;" vertex="1" parent="1">
          <mxGeometry x="240" y="270" width="140" height="30" as="geometry" />
        </mxCell>
        <mxCell id="3Dl1Y_PkVIbaozeOQW8g-40" value="1" style="text;strokeColor=none;align=center;fillColor=none;html=1;verticalAlign=middle;whiteSpace=wrap;rounded=0;" vertex="1" parent="1">
          <mxGeometry x="384" y="295" width="60" height="30" as="geometry" />
        </mxCell>
      </root>
    </mxGraphModel>
  </diagram>
</mxfile>
